STARTFONT 2.1
COMMENT Copyright (C) 2022 by Andrew G. Crowell. Creative Commons Attribution 4.0 International License (CC BY 4.0).
COMMENT om_window_silhouette.bdf
FONT -eggboycolor-omelette_window_silhouette-medium-r-normal--8-100-72-72-m-90-ISO8859-1
SIZE 8 72 72
FONTBOUNDINGBOX 8 8 0 -2
STARTPROPERTIES 13
FONT_ASCENT 6 
FONT_DESCENT 2
PIXEL_SIZE 8
POINT_SIZE 100
RESOLUTION_X 72
RESOLUTION_Y 72
SPACING "C"
DEFAULT_CHAR 32
AVERAGE_WIDTH 90
CHARSET_REGISTRY "ISO8859"
CHARSET_ENCODING "1"
FOUNDRY "eggboycolor"
COPYRIGHT "Copyright (C) 2022 by Andrew G. Crowell. Creative Commons Attribution 4.0 International License (CC BY 4.0)."
ENDPROPERTIES
CHARS 24
STARTCHAR char65
ENCODING 65
SWIDTH 800 0
DWIDTH 8 0
BBX 8 8 0 -2
BITMAP
00
07
1F
38
30
60
60
60
ENDCHAR
STARTCHAR char66
ENCODING 66
SWIDTH 800 0
DWIDTH 8 0
BBX 8 8 0 -2
BITMAP
00
FF
FF
00
00
00
00
00
ENDCHAR
STARTCHAR char67
ENCODING 67
SWIDTH 800 0
DWIDTH 8 0
BBX 8 8 0 -2
BITMAP
00
E0
F8
1C
0C
06
06
06
ENDCHAR
STARTCHAR char68
ENCODING 68
SWIDTH 800 0
DWIDTH 8 0
BBX 8 8 0 -2
BITMAP
00
00
00
00
07
0F
0F
0F
ENDCHAR
STARTCHAR char69
ENCODING 69
SWIDTH 800 0
DWIDTH 8 0
BBX 8 8 0 -2
BITMAP
00
00
00
00
FF
FF
FF
FF
ENDCHAR
STARTCHAR char70
ENCODING 70
SWIDTH 800 0
DWIDTH 8 0
BBX 8 8 0 -2
BITMAP
00
00
00
00
E0
F0
F0
F0
ENDCHAR
STARTCHAR char71
ENCODING 71
SWIDTH 800 0
DWIDTH 8 0
BBX 8 8 0 -2
BITMAP
00
00
1C
3C
30
30
00
00
ENDCHAR
STARTCHAR char72
ENCODING 72
SWIDTH 800 0
DWIDTH 8 0
BBX 8 8 0 -2
BITMAP
00
00
38
3C
0C
0C
00
00
ENDCHAR
STARTCHAR char73
ENCODING 73
SWIDTH 800 0
DWIDTH 8 0
BBX 8 8 0 -2
BITMAP
60
60
60
60
60
60
60
60
ENDCHAR
STARTCHAR char74
ENCODING 74
SWIDTH 800 0
DWIDTH 8 0
BBX 8 8 0 -2
BITMAP
00
6A
40
02
40
02
56
00
ENDCHAR
STARTCHAR char75
ENCODING 75
SWIDTH 800 0
DWIDTH 8 0
BBX 8 8 0 -2
BITMAP
06
06
06
06
06
06
06
06
ENDCHAR
STARTCHAR char76
ENCODING 76
SWIDTH 800 0
DWIDTH 8 0
BBX 8 8 0 -2
BITMAP
0F
0F
0F
0F
0F
0F
0F
0F
ENDCHAR
STARTCHAR char77
ENCODING 77
SWIDTH 800 0
DWIDTH 8 0
BBX 8 8 0 -2
BITMAP
FF
FF
FF
FF
FF
FF
FF
FF
ENDCHAR
STARTCHAR char78
ENCODING 78
SWIDTH 800 0
DWIDTH 8 0
BBX 8 8 0 -2
BITMAP
F0
F0
F0
F0
F0
F0
F0
F0
ENDCHAR
STARTCHAR char79
ENCODING 79
SWIDTH 800 0
DWIDTH 8 0
BBX 8 8 0 -2
BITMAP
00
00
30
30
3C
1C
00
00
ENDCHAR
STARTCHAR char80
ENCODING 80
SWIDTH 800 0
DWIDTH 8 0
BBX 8 8 0 -2
BITMAP
00
00
0C
0C
3C
38
00
00
ENDCHAR
STARTCHAR char81
ENCODING 81
SWIDTH 800 0
DWIDTH 8 0
BBX 8 8 0 -2
BITMAP
60
60
60
30
38
1F
07
00
ENDCHAR
STARTCHAR char82
ENCODING 82
SWIDTH 800 0
DWIDTH 8 0
BBX 8 8 0 -2
BITMAP
00
00
00
00
00
FF
FF
00
ENDCHAR
STARTCHAR char83
ENCODING 83
SWIDTH 800 0
DWIDTH 8 0
BBX 8 8 0 -2
BITMAP
06
06
06
0C
1C
F8
E0
00
ENDCHAR
STARTCHAR char84
ENCODING 84
SWIDTH 800 0
DWIDTH 8 0
BBX 8 8 0 -2
BITMAP
0F
0F
0F
07
00
00
00
00
ENDCHAR
STARTCHAR char85
ENCODING 85
SWIDTH 800 0
DWIDTH 8 0
BBX 8 8 0 -2
BITMAP
FF
FF
FF
FF
00
00
00
00
ENDCHAR
STARTCHAR char86
ENCODING 86
SWIDTH 800 0
DWIDTH 8 0
BBX 8 8 0 -2
BITMAP
F0
F0
F0
E0
00
00
00
00
ENDCHAR
STARTCHAR char87
ENCODING 87
SWIDTH 800 0
DWIDTH 8 0
BBX 8 8 0 -2
BITMAP
3C
7E
5A
7E
5A
66
3C
00
ENDCHAR
STARTCHAR char88
ENCODING 88
SWIDTH 800 0
DWIDTH 8 0
BBX 8 8 0 -2
BITMAP
3C
7E
5A
7E
66
5A
3C
00
ENDCHAR
ENDFONT
